<svg width="878" height="290" viewBox="0 0 878 290" fill="none" xmlns="http://www.w3.org/2000/svg">
<path d="M844.266 132.402C848.952 123.632 851.62 113.61 851.62 102.961C851.62 68.2772 823.502 40.1588 788.818 40.1588C782.925 40.1588 777.241 40.9708 771.835 42.502C760.467 23.9652 739.982 11.5996 716.619 11.5996C680.822 11.5996 651.822 40.646 651.822 76.4436C651.822 84.61 653.33 92.4284 656.114 99.6204C628.227 105.629 607.324 130.476 607.324 160.196C607.324 179.15 615.839 196.156 629.271 207.5C628.668 210.864 628.343 214.344 628.343 217.894C628.343 251.024 655.209 277.866 688.315 277.866C697.758 277.866 706.667 275.685 714.601 271.811C723.487 282.9 737.175 290 752.487 290C771.418 290 787.843 279.188 795.871 263.343C799.281 263.876 802.807 264.132 806.403 264.132C845.797 264.132 877.743 232.208 877.743 192.792C877.743 167.318 864.38 144.93 844.243 132.356L844.266 132.402Z" fill="#578246"/>
<path d="M844.266 120.802C848.952 112.033 851.62 102.01 851.62 91.3616C851.62 56.6776 823.502 28.5592 788.818 28.5592C782.925 28.5592 777.241 29.3712 771.835 30.9024C760.467 12.3656 739.982 0 716.619 0C680.822 0 651.822 29.0464 651.822 64.844C651.822 73.0104 653.33 80.8288 656.114 88.0208C628.227 94.0296 607.324 118.877 607.324 148.596C607.324 167.55 615.839 184.556 629.271 195.901C628.668 199.265 628.343 202.745 628.343 206.294C628.343 239.424 655.209 266.266 688.315 266.266C697.758 266.266 706.667 264.086 714.601 260.211C723.487 271.301 737.175 278.4 752.487 278.4C771.418 278.4 787.843 267.589 795.871 251.743C799.281 252.277 802.807 252.532 806.403 252.532C845.797 252.532 877.743 220.609 877.743 181.192C877.743 155.718 864.38 133.33 844.243 120.756L844.266 120.802Z" fill="#99C08E"/>
<path d="M703.491 177.919C702.818 177.919 701.867 177.966 700.661 178.082C699.431 178.198 698.55 178.244 697.993 178.244C695.882 178.244 694.35 177.687 693.399 176.574C692.448 175.46 691.984 173.674 691.984 171.238C691.984 170.565 692.378 167.062 693.144 160.705C700.939 158.153 708.572 156.854 716.019 156.854C716.576 156.854 717.411 156.877 718.525 156.947C719.638 156.993 720.52 157.039 721.193 157.039L732.886 156.367C732.445 155.369 732.19 154 732.143 152.283C732.097 150.567 731.888 149.221 731.563 148.27C731.238 147.319 730.496 146.785 729.383 146.692C727.712 146.367 720.868 146.043 708.827 145.764C696.81 145.486 689.78 145.463 687.785 145.671C685.233 146.112 683.029 146.251 681.196 146.089C679.363 145.927 677.994 144.72 677.113 142.493C675.442 138.827 674.932 134.698 675.605 130.127C675.837 129.014 676.765 127.9 678.435 126.787C680.106 125.673 684.003 124.791 690.128 124.119C696.253 123.446 700.591 123.33 703.166 123.794H724.139C728.083 123.794 730.844 123.747 732.398 123.631C752.884 123.399 764.693 123.307 767.802 123.307C770.91 123.307 777.708 123.585 788.171 124.142C798.634 124.699 804.156 124.977 804.713 124.977C805.27 124.977 806.267 125.139 807.729 125.487C810.072 126.044 811.65 126.856 812.485 127.9C813.32 128.967 813.575 130.661 813.227 133.004C813.111 133.886 812.995 134.675 812.902 135.347C812.786 136.02 812.67 136.623 812.578 137.18C812.462 137.737 812.253 138.201 811.905 138.595C811.58 138.99 811.348 139.338 811.232 139.686C811.116 140.034 810.791 140.335 810.234 140.614C809.678 140.892 809.26 141.124 808.982 141.287C808.703 141.449 808.146 141.658 807.311 141.867C806.476 142.099 805.873 142.261 805.478 142.377C805.084 142.493 804.272 142.702 803.066 143.05C801.836 143.375 800.885 143.607 800.235 143.723C799.006 144.047 791.883 144.419 778.845 144.813C765.806 145.207 758.638 145.625 757.292 146.066C756.851 146.182 756.596 146.669 756.55 147.574C756.503 148.455 756.503 149.407 756.55 150.404C756.596 151.402 756.573 152.469 756.457 153.583C756.457 153.907 756.503 154.418 756.619 155.091C756.735 155.763 756.782 156.204 756.782 156.436C768.15 156.668 777.894 156.877 786.014 157.109C788.125 157.225 790.074 157.666 791.86 158.455C792.533 158.687 793.113 159.127 793.623 159.8C794.134 160.473 794.366 161.076 794.366 161.633V163.976C794.366 167.201 793.878 169.823 792.95 171.818C791.999 173.813 790.027 175.321 787.011 176.319C786.454 176.551 784.691 176.69 781.745 176.736C778.798 176.783 776.084 176.922 773.648 177.154C771.189 177.386 769.983 177.827 769.983 178.499C769.867 179.056 769.913 179.938 770.145 181.167C770.377 182.397 770.47 183.279 770.47 183.835C770.47 183.951 770.516 184.903 770.632 186.666C770.748 188.452 770.794 189.612 770.794 190.169L791.674 191.515C791.558 192.953 791.489 195.876 791.419 200.284C791.35 204.692 791.002 208.103 790.329 210.562C790.213 211.003 789.818 211.513 789.169 212.07C788.496 212.627 787.939 212.905 787.498 212.905C785.944 213.021 779.471 213.067 768.126 213.067C765.551 213.067 761.839 213.021 756.944 212.905C752.049 212.789 748.314 212.743 745.762 212.743C741.632 212.743 735.438 212.766 727.132 212.835C718.826 212.882 712.632 212.928 708.503 212.928H694.977C693.422 212.928 692.216 212.487 691.381 211.583C690.546 210.701 690.128 209.518 690.128 208.079C690.128 207.639 690.174 207.128 690.29 206.571C690.29 206.247 690.383 205.087 690.546 203.138C690.708 201.189 690.963 199.774 691.288 198.869C692.17 196.874 693.724 195.528 695.974 194.855C697.97 194.183 700.846 193.463 704.582 192.675C708.317 191.886 710.521 191.445 711.17 191.329C712.725 191.004 713.862 190.656 714.604 190.331C715.323 190.007 716.089 189.38 716.854 188.499C717.62 187.617 718.014 186.434 718.014 184.995C718.014 184.207 718.13 183.371 718.339 182.49C718.571 181.608 718.873 180.564 719.267 179.404C719.662 178.244 719.917 177.432 720.01 176.991C717.898 177.548 716.785 177.827 716.669 177.827C713.328 177.943 710.219 177.989 707.319 177.989H703.468L703.491 177.919ZM727.039 59.9938C739.289 59.1122 746.179 58.6018 747.757 58.4858C750.309 58.4858 753.162 59.3674 756.271 61.1538C756.944 61.4786 757.547 62.1746 758.104 63.2418C758.661 64.309 758.939 65.2834 758.939 66.165C758.823 73.0786 759.658 79.2498 761.445 84.7018C761.77 85.8154 764.484 87.5786 769.542 89.9682C774.599 92.3578 778.195 93.8426 780.306 94.3994C787.313 96.3018 796.175 98.9698 806.87 102.427C808.657 102.983 809.91 103.703 810.629 104.607C811.348 105.489 811.325 106.835 810.536 108.621C810.211 109.503 809.886 110.175 809.608 110.616C809.33 111.057 809.098 111.475 808.935 111.869C808.773 112.263 808.518 112.959 808.193 113.957C807.961 115.071 807.729 116.277 807.45 117.553C807.172 118.829 807.033 119.618 807.033 119.896C807.033 120.175 806.754 120.546 806.198 120.987C805.641 121.427 805.107 121.683 804.62 121.729C804.11 121.775 803.089 121.915 801.534 122.147C800.862 122.263 798.982 122.634 795.85 123.237C792.742 123.84 790.398 124.165 788.844 124.165C786.501 124.165 784.111 123.214 781.652 121.335C780.422 120.221 774.019 116.834 762.443 111.15C750.866 105.466 743.001 101.684 738.894 99.7818C736.783 98.9002 734.394 99.0626 731.703 100.292C726.459 102.519 720.126 105.698 712.655 109.804C709.198 111.707 705.324 113.423 701.055 114.978C696.763 116.532 693.167 117.205 690.29 116.973C688.063 116.741 686.555 116.3 685.79 115.627C685.001 114.955 684.444 113.516 684.119 111.289C683.794 109.387 683.284 107.438 682.611 105.443C682.054 103.54 681.73 102.079 681.614 101.011C681.498 99.9442 681.869 98.9466 682.704 97.9954C683.539 97.0442 684.351 96.3482 685.117 95.9074C685.882 95.4666 687.46 94.6778 689.803 93.5642C693.376 91.6618 699.362 88.8082 707.76 84.957C716.158 81.1058 721.216 78.809 722.886 78.0202C724.789 77.1386 726.065 75.9322 726.738 74.4242C727.41 72.9162 727.805 70.9906 727.898 68.6706C727.898 68.3458 727.619 65.4458 727.063 59.9938H727.039ZM737.062 188.777C737.062 190.447 737.943 191.283 739.73 191.283H740.402C741.168 191.283 742.885 191.167 745.506 190.958C748.128 190.726 750.146 190.563 751.608 190.447C751.933 190.331 752.35 190.123 752.861 189.775C753.371 189.45 753.603 189.171 753.603 188.939C753.719 186.828 753.766 184.763 753.766 182.768C753.766 180.216 753.719 177.641 753.603 175.089C753.603 174.857 753.302 174.579 752.675 174.254C752.072 173.929 751.538 173.743 751.098 173.743H750.935C749.822 173.859 745.854 174.416 739.08 175.414C737.85 182.977 737.178 187.153 737.085 187.942V188.777H737.062Z" fill="#578246"/>
<path d="M704.114 187.199C703.441 187.199 702.49 187.246 701.284 187.362C700.054 187.478 699.173 187.524 698.616 187.524C696.505 187.524 694.973 186.967 694.022 185.854C693.071 184.74 692.607 182.954 692.607 180.518C692.607 179.845 693.001 176.342 693.767 169.985C701.562 167.433 709.195 166.134 716.642 166.134C717.199 166.134 718.034 166.157 719.148 166.226C720.262 166.273 721.143 166.319 721.816 166.319L733.509 165.646C733.068 164.649 732.813 163.28 732.766 161.563C732.697 159.846 732.511 158.501 732.186 157.55C731.861 156.598 731.119 156.065 730.005 155.972C728.335 155.647 721.491 155.322 709.45 155.044C697.433 154.766 690.403 154.742 688.408 154.951C685.856 155.392 683.652 155.531 681.819 155.369C679.986 155.206 678.617 154 677.736 151.773C676.065 148.107 675.555 143.978 676.228 139.407C676.46 138.294 677.388 137.18 679.058 136.066C680.729 134.953 684.626 134.071 690.751 133.398C696.876 132.726 701.214 132.61 703.789 133.074H724.762C728.706 133.074 731.467 133.027 733.021 132.911C753.507 132.679 765.316 132.586 768.425 132.586C771.533 132.586 778.331 132.865 788.794 133.422C799.257 133.978 804.779 134.257 805.336 134.257C805.893 134.257 806.89 134.419 808.352 134.767C810.695 135.324 812.273 136.136 813.108 137.18C813.943 138.247 814.198 139.941 813.85 142.284C813.734 143.166 813.618 143.954 813.526 144.627C813.41 145.3 813.293 145.903 813.201 146.46C813.085 147.017 812.876 147.481 812.528 147.875C812.203 148.27 811.971 148.618 811.855 148.966C811.739 149.29 811.414 149.615 810.858 149.894C810.301 150.172 809.883 150.404 809.605 150.566C809.326 150.729 808.769 150.938 807.934 151.146C807.099 151.378 806.496 151.541 806.101 151.657C805.707 151.773 804.895 151.982 803.689 152.33C802.482 152.678 801.508 152.886 800.858 153.002C799.629 153.327 792.506 153.698 779.468 154.093C766.43 154.487 759.261 154.905 757.915 155.346C757.474 155.462 757.219 155.949 757.173 156.854C757.126 157.735 757.126 158.686 757.173 159.684C757.219 160.682 757.196 161.749 757.08 162.862C757.08 163.187 757.126 163.698 757.242 164.37C757.358 165.043 757.405 165.484 757.405 165.716C768.773 165.948 778.517 166.157 786.637 166.389C788.748 166.505 790.697 166.946 792.483 167.734C793.156 167.966 793.736 168.407 794.246 169.08C794.757 169.753 794.989 170.356 794.989 170.913V173.256C794.989 176.481 794.525 179.102 793.573 181.098C792.622 183.093 790.65 184.601 787.634 185.598C787.077 185.83 785.314 185.97 782.368 186.016C779.422 186.062 776.707 186.202 774.271 186.434C771.812 186.666 770.605 187.106 770.605 187.779C770.489 188.336 770.559 189.218 770.768 190.447C771 191.677 771.093 192.558 771.093 193.115C771.093 193.231 771.139 194.182 771.255 195.946C771.371 197.732 771.418 198.892 771.418 199.449L792.298 200.794C792.182 202.233 792.112 205.156 792.042 209.564C791.996 213.972 791.625 217.382 790.952 219.842C790.836 220.282 790.441 220.793 789.792 221.35C789.119 221.906 788.562 222.185 788.121 222.185C786.567 222.301 780.094 222.347 768.749 222.347C766.197 222.347 762.462 222.301 757.567 222.185C752.672 222.069 748.937 222.022 746.385 222.022C742.255 222.022 736.061 222.046 727.755 222.115C719.449 222.162 713.255 222.208 709.125 222.208H695.6C694.045 222.208 692.839 221.767 692.004 220.862C691.169 219.981 690.751 218.798 690.751 217.359C690.751 216.918 690.797 216.408 690.913 215.851C690.913 215.526 691.006 214.366 691.169 212.418C691.331 210.469 691.586 209.054 691.911 208.149C692.793 206.154 694.37 204.808 696.597 204.135C698.593 203.462 701.469 202.743 705.205 201.954C708.94 201.166 711.144 200.725 711.793 200.609C713.348 200.284 714.485 199.936 715.227 199.611C715.946 199.286 716.712 198.66 717.478 197.778C718.243 196.897 718.638 195.714 718.638 194.275C718.638 193.486 718.753 192.651 718.962 191.77C719.194 190.888 719.496 189.844 719.89 188.684C720.285 187.524 720.54 186.712 720.633 186.271C718.521 186.828 717.408 187.106 717.292 187.106C713.951 187.222 710.842 187.269 707.942 187.269H704.091L704.114 187.199ZM727.662 69.2736C739.912 68.392 746.802 67.8816 748.38 67.7656C750.932 67.7656 753.785 68.6472 756.894 70.4336C757.567 70.7584 758.17 71.4544 758.727 72.5216C759.284 73.5888 759.562 74.5632 759.562 75.4448C759.446 82.3584 760.282 88.5296 762.068 93.9816C762.393 95.0952 765.107 96.8584 770.165 99.248C775.222 101.638 778.818 103.122 780.929 103.679C787.936 105.582 796.798 108.25 807.493 111.706C809.28 112.263 810.533 112.982 811.252 113.887C811.971 114.769 811.948 116.114 811.159 117.901C810.834 118.782 810.509 119.455 810.231 119.896C809.953 120.337 809.721 120.754 809.558 121.149C809.396 121.543 809.141 122.239 808.816 123.237C808.584 124.35 808.329 125.557 808.073 126.833C807.795 128.109 807.656 128.898 807.656 129.176C807.656 129.454 807.377 129.826 806.821 130.266C806.264 130.707 805.73 130.962 805.243 131.009C804.733 131.055 803.712 131.194 802.158 131.426C801.485 131.542 799.582 131.914 796.473 132.517C793.365 133.12 791.022 133.445 789.467 133.445C787.124 133.445 784.734 132.494 782.275 130.614C781.045 129.501 774.642 126.114 763.065 120.43C751.489 114.746 743.624 110.964 739.518 109.062C737.406 108.18 735.017 108.342 732.325 109.572C727.082 111.799 720.749 114.978 713.278 119.084C709.822 120.986 705.947 122.703 701.678 124.258C697.386 125.812 693.79 126.485 690.913 126.253C688.686 126.021 687.178 125.58 686.413 124.907C685.624 124.234 685.067 122.796 684.742 120.569C684.417 118.666 683.907 116.718 683.234 114.722C682.677 112.82 682.353 111.358 682.237 110.291C682.121 109.224 682.492 108.226 683.327 107.275C684.162 106.324 684.974 105.628 685.74 105.187C686.529 104.746 688.083 103.958 690.426 102.844C693.999 100.942 699.985 98.088 708.383 94.2368C716.781 90.3856 721.839 88.0888 723.509 87.3C725.412 86.4184 726.688 85.212 727.361 83.704C728.033 82.196 728.428 80.2704 728.521 77.9504C728.521 77.6256 728.242 74.7256 727.685 69.2736H727.662ZM737.685 198.057C737.685 199.727 738.566 200.562 740.353 200.562H741.025C741.814 200.562 743.508 200.446 746.129 200.238C748.751 200.006 750.769 199.843 752.231 199.727C752.556 199.611 752.973 199.402 753.484 199.054C753.994 198.706 754.226 198.451 754.226 198.219C754.342 196.108 754.389 194.043 754.389 192.048C754.389 189.496 754.342 186.921 754.226 184.369C754.226 184.137 753.925 183.858 753.298 183.534C752.672 183.209 752.161 183.023 751.721 183.023H751.558C750.445 183.139 746.501 183.696 739.703 184.694C738.473 192.257 737.801 196.433 737.708 197.222V198.057H737.685Z" fill="white"/>
<path d="M99.1767 46.5375C105.07 46.6767 113.143 46.4215 121.774 46.5375C140.125 46.8391 183.602 46.3983 192.232 80.4327C202.301 120.174 194.158 204.715 190.306 218.774C186.478 232.834 179.774 255.198 144.95 255.198H62.1959C56.4423 255.198 12.3623 252.971 4.6831 210.794C-2.9729 168.639 0.855101 110.5 1.7367 97.8791C2.6183 85.2815 5.0079 50.4351 47.8119 47.8599C74.3991 46.2823 88.5279 46.2823 99.1767 46.5375Z" fill="#BC3C6A"/>
<path d="M99.1767 34.9384C105.07 35.0776 113.143 34.8224 121.774 34.9384C140.125 35.24 183.602 34.7992 192.232 68.8336C202.301 108.575 194.158 193.116 190.306 207.175C186.478 221.234 179.774 243.599 144.95 243.599H62.1959C56.4423 243.599 12.3623 241.372 4.6831 199.194C-2.9729 157.04 0.855101 98.9008 1.7367 86.28C2.6183 73.6824 5.0079 38.836 47.8119 36.2608C74.3991 34.6832 88.5279 34.6832 99.1767 34.9384Z" fill="#F885A7"/>
<path d="M91.1248 133.261C90.9624 131.22 90.8928 129.456 90.9392 127.972C90.9856 126.487 91.4032 125.234 92.2152 124.213C93.0272 123.192 94.3264 122.473 96.1128 122.032C100.034 121.174 102.284 120.756 102.887 120.756C104.929 120.594 106.53 120.594 107.666 120.756C108.826 120.919 109.615 121.406 110.079 122.218C110.543 123.03 110.961 124.584 111.286 126.881C111.378 127.044 111.402 127.74 111.402 128.923C111.402 130.106 111.402 131.243 111.471 132.31C111.518 133.377 111.61 133.911 111.796 133.911C114 133.911 119.058 134.05 126.969 134.352C134.88 134.653 139.891 134.792 142.026 134.792L152.86 133.772C153.115 133.864 153.486 134.05 153.95 134.352C154.414 134.653 154.994 135.256 155.667 136.138C156.34 137.043 156.595 137.994 156.433 139.015C156.34 139.525 155.783 142.889 154.786 149.084C153.602 149.176 152.953 149.223 152.86 149.223C152.442 149.223 137.502 149.06 108.084 148.712C106.46 148.712 102.098 148.828 94.9296 149.037C87.784 149.246 83.6544 149.362 82.564 149.362C80.5224 149.455 75.3256 149.408 66.9968 149.223C58.668 149.06 53.5176 148.921 51.5456 148.828C51.0352 148.828 49.8056 148.921 47.8568 149.084C45.908 149.246 44.6552 149.339 44.1448 149.339C43.3792 149.339 42.7528 149.269 42.2424 149.153C41.732 149.014 41.3608 148.759 41.152 148.318C40.9432 147.9 40.804 147.529 40.7576 147.228C40.7112 146.926 40.6648 146.323 40.6416 145.372C40.5952 144.444 40.572 143.701 40.572 143.191C40.4096 141.66 40.4096 139.456 40.572 136.556C40.6648 135.024 41.4304 134.259 42.8688 134.259C45.0032 134.166 51.244 134.212 61.6144 134.398C71.9848 134.56 78.4112 134.607 80.8936 134.514C81.9144 134.514 85.3248 134.096 91.1016 133.238L91.1248 133.261ZM56.1624 86.3044C56.8352 86.2116 57.7632 86.026 58.9 85.7244C60.06 85.4228 61.0576 85.214 61.8928 85.0748C62.7512 84.9588 63.5864 84.8428 64.4448 84.75C79.3392 84.2396 90.8696 83.9844 99.036 83.9844C108.316 83.9844 118.222 84.286 128.778 84.866C131.748 84.866 133.581 84.9356 134.254 85.0516C134.926 85.1908 135.878 85.3764 137.061 85.6316C138.244 85.8868 139.172 86.2812 139.798 86.838C140.448 87.3948 140.889 88.0908 141.144 88.9492C141.237 89.2972 141.353 89.7148 141.538 90.2252C141.886 91.594 142.095 92.638 142.165 93.4268C142.258 94.3548 142.327 95.306 142.42 96.234C142.768 96.3964 142.861 99.9692 142.745 106.952C142.606 113.936 142.559 117.508 142.559 117.671C142.652 120.223 142.142 122.102 141.028 123.285C139.914 124.468 138.128 125.118 135.669 125.211C134.903 125.211 133.79 125.141 132.351 125.025C130.913 124.886 129.846 124.84 129.15 124.84C125.484 124.932 123.582 120.153 123.396 110.548C123.396 107.486 123.002 105.607 122.19 104.934C121.378 104.261 119.522 103.82 116.645 103.658C116.227 103.658 115.879 103.612 115.624 103.519C108.223 103.101 103.676 102.892 101.959 102.892C89.292 102.637 77.2048 102.591 65.7208 102.753H62.148C61.3824 102.753 60.6168 102.637 59.8512 102.428C59.0856 102.22 58.5752 102.08 58.32 102.057C58.0648 102.011 57.8096 101.663 57.5544 101.036C57.2992 100.41 57.16 99.9228 57.16 99.6444C57.16 99.366 57.1136 98.6004 57.044 97.4172C56.9512 96.234 56.8816 95.2364 56.7888 94.4708C56.3712 89.1116 56.1624 86.3972 56.1624 86.3044ZM94.6976 152.656C99.6392 152.656 105.416 153.051 112.051 153.863C118.686 154.675 124.301 155.719 128.894 156.995C136.713 159.292 141.051 163.375 141.91 169.244C142.165 170.776 142.304 172.191 142.304 173.467C142.304 179.174 140.054 183.721 135.53 187.108C132.467 189.405 129.938 191.215 127.943 192.537C125.948 193.86 123.419 195.112 120.357 196.296C117.294 197.479 114.232 198.128 111.17 198.221C109.986 198.221 106.901 198.36 101.913 198.662C96.948 198.964 93.6072 199.103 91.8904 199.103C89.5008 199.103 87.3896 198.94 85.5104 198.592C85.0928 198.592 84.4896 198.5 83.724 198.337C80.1512 197.734 77.4368 197.247 75.5576 196.876C73.6784 196.504 71.4048 195.716 68.7368 194.509C66.0456 193.326 63.772 191.795 61.916 189.916C58.5056 186.598 56.812 183.489 56.812 180.589C56.812 174.627 57.6704 170.219 59.364 167.319C64.12 159.315 73.9104 154.559 88.712 153.028C90.6608 152.772 92.6792 152.633 94.6976 152.633V152.656ZM113.443 182.376C115.578 182.376 117.387 181.517 118.872 179.824C120.357 178.13 121.099 176.042 121.099 173.56C121.099 169.987 119.15 167.783 115.23 166.924C111.054 166.066 102.771 165.648 90.336 165.648H90.22C89.0368 165.648 87.9928 165.857 87.088 166.275C86.2064 166.692 85.464 167.365 84.9304 168.247C84.3736 169.128 84.0024 169.917 83.7704 170.613C83.5616 171.286 83.2832 172.26 82.9352 173.536C82.7728 174.14 82.68 174.696 82.68 175.207C82.68 176.576 83.1672 177.666 84.1416 178.524C85.116 179.383 86.3224 179.916 87.784 180.195C89.2224 180.543 91.1944 180.821 93.6536 181.076C96.1128 181.332 98.2936 181.494 100.15 181.587C102.029 181.68 104.418 181.796 107.365 181.958C110.288 182.12 112.19 182.26 113.049 182.352H113.443V182.376Z" fill="#BC3C6A"/>
<path d="M91.1248 140.221C90.9624 138.18 90.8928 136.416 90.9392 134.932C90.9856 133.447 91.4032 132.194 92.2152 131.173C93.0272 130.152 94.3264 129.433 96.1128 128.992C100.034 128.134 102.284 127.716 102.887 127.716C104.929 127.554 106.53 127.554 107.666 127.716C108.826 127.879 109.615 128.366 110.079 129.178C110.543 129.99 110.961 131.544 111.286 133.841C111.378 134.004 111.402 134.7 111.402 135.883C111.402 137.066 111.402 138.203 111.471 139.27C111.518 140.337 111.61 140.871 111.796 140.871C114 140.871 119.058 141.01 126.969 141.312C134.88 141.613 139.891 141.752 142.026 141.752L152.86 140.732C153.115 140.824 153.486 141.01 153.95 141.312C154.414 141.613 154.994 142.216 155.667 143.098C156.34 144.003 156.595 144.954 156.433 145.975C156.34 146.485 155.783 149.849 154.786 156.044C153.602 156.136 152.953 156.183 152.86 156.183C152.442 156.183 137.502 156.02 108.084 155.672C106.46 155.672 102.098 155.788 94.9296 155.997C87.784 156.206 83.6544 156.322 82.564 156.322C80.5224 156.415 75.3256 156.368 66.9968 156.183C58.668 156.02 53.5176 155.881 51.5456 155.788C51.0352 155.788 49.8056 155.881 47.8568 156.044C45.908 156.206 44.6552 156.299 44.1448 156.299C43.3792 156.299 42.7528 156.229 42.2424 156.113C41.732 155.974 41.3608 155.719 41.152 155.278C40.9432 154.86 40.804 154.489 40.7576 154.188C40.7112 153.886 40.6648 153.283 40.6416 152.332C40.5952 151.404 40.572 150.661 40.572 150.151C40.4096 148.62 40.4096 146.416 40.572 143.516C40.6648 141.984 41.4304 141.219 42.8688 141.219C45.0032 141.126 51.244 141.172 61.6144 141.358C71.9848 141.52 78.4112 141.567 80.8936 141.474C81.9144 141.474 85.3248 141.056 91.1016 140.198L91.1248 140.221ZM56.1624 93.2643C56.8352 93.1715 57.7632 92.9859 58.9 92.6843C60.06 92.3827 61.0576 92.1739 61.8928 92.0347C62.7512 91.9187 63.5864 91.8027 64.4448 91.7099C79.3392 91.1995 90.8696 90.9443 99.036 90.9443C108.316 90.9443 118.222 91.2459 128.778 91.8259C131.748 91.8259 133.581 91.8955 134.254 92.0115C134.926 92.1507 135.878 92.3363 137.061 92.5915C138.244 92.8467 139.172 93.2411 139.798 93.7979C140.448 94.3547 140.889 95.0507 141.144 95.9091C141.237 96.2571 141.353 96.6747 141.538 97.1851C141.886 98.5539 142.095 99.5979 142.165 100.387C142.258 101.315 142.327 102.266 142.42 103.194C142.768 103.356 142.861 106.929 142.745 113.912C142.606 120.896 142.559 124.468 142.559 124.631C142.652 127.183 142.142 129.062 141.028 130.245C139.914 131.428 138.128 132.078 135.669 132.171C134.903 132.171 133.79 132.101 132.351 131.985C130.913 131.846 129.846 131.8 129.15 131.8C125.484 131.892 123.582 127.113 123.396 117.508C123.396 114.446 123.002 112.567 122.19 111.894C121.378 111.221 119.522 110.78 116.645 110.618C116.227 110.618 115.879 110.572 115.624 110.479C108.223 110.061 103.676 109.852 101.959 109.852C89.292 109.597 77.2048 109.551 65.7208 109.713H62.148C61.3824 109.713 60.6168 109.597 59.8512 109.388C59.0856 109.18 58.5752 109.04 58.32 109.017C58.0648 108.971 57.8096 108.623 57.5544 107.996C57.2992 107.37 57.16 106.883 57.16 106.604C57.16 106.326 57.1136 105.56 57.044 104.377C56.9512 103.194 56.8816 102.196 56.7888 101.431C56.3712 96.0715 56.1624 93.3571 56.1624 93.2643ZM94.6976 159.616C99.6392 159.616 105.416 160.011 112.051 160.823C118.686 161.635 124.301 162.679 128.894 163.955C136.713 166.252 141.051 170.335 141.91 176.204C142.165 177.736 142.304 179.151 142.304 180.427C142.304 186.134 140.054 190.681 135.53 194.068C132.467 196.365 129.938 198.175 127.943 199.497C125.948 200.82 123.419 202.072 120.357 203.256C117.294 204.439 114.232 205.088 111.17 205.181C109.986 205.181 106.901 205.32 101.913 205.622C96.948 205.924 93.6072 206.063 91.8904 206.063C89.5008 206.063 87.3896 205.9 85.5104 205.552C85.0928 205.552 84.4896 205.46 83.724 205.297C80.1512 204.694 77.4368 204.207 75.5576 203.836C73.6784 203.464 71.4048 202.676 68.7368 201.469C66.0456 200.286 63.772 198.755 61.916 196.876C58.5056 193.558 56.812 190.449 56.812 187.549C56.812 181.587 57.6704 177.179 59.364 174.279C64.12 166.275 73.9104 161.519 88.712 159.988C90.6608 159.732 92.6792 159.593 94.6976 159.593V159.616ZM113.443 189.336C115.578 189.336 117.387 188.477 118.872 186.784C120.357 185.09 121.099 183.002 121.099 180.52C121.099 176.947 119.15 174.743 115.23 173.884C111.054 173.026 102.771 172.608 90.336 172.608H90.22C89.0368 172.608 87.9928 172.817 87.088 173.235C86.2064 173.652 85.464 174.325 84.9304 175.207C84.3736 176.088 84.0024 176.877 83.7704 177.573C83.5616 178.246 83.2832 179.22 82.9352 180.496C82.7728 181.1 82.68 181.656 82.68 182.167C82.68 183.536 83.1672 184.626 84.1416 185.484C85.116 186.343 86.3224 186.876 87.784 187.155C89.2224 187.503 91.1944 187.781 93.6536 188.036C96.1128 188.292 98.2936 188.454 100.15 188.547C102.029 188.64 104.418 188.756 107.365 188.918C110.288 189.08 112.19 189.22 113.049 189.312H113.443V189.336Z" fill="white"/>
<path d="M291.551 47.1888C287.769 47.1888 273.803 47.7688 270.044 48.024C256.588 48.9984 217.983 54.7984 216.452 89.204C214.596 130.894 215.826 197.455 221.115 215.505C226.405 233.554 243.596 249.47 272.434 252.207C296.933 254.527 354.562 259.678 373.841 246.918C399.547 229.912 404.952 217.686 408.061 174.139C411.17 130.593 425.159 69.2984 383.167 54.6824C349.226 42.8736 297.304 47.1888 291.527 47.1888H291.551Z" fill="#418099"/>
<path d="M291.551 35.5892C287.769 35.5892 273.803 36.1692 270.044 36.4244C256.588 37.3988 217.983 43.1988 216.452 77.6044C214.596 119.295 215.826 185.856 221.115 203.905C226.405 221.955 243.596 237.87 272.434 240.608C296.933 242.928 354.562 248.078 373.841 235.318C399.547 218.312 404.952 206.086 408.061 162.54C411.17 118.993 425.159 57.6988 383.167 43.0828C349.226 31.274 297.304 35.5892 291.527 35.5892H291.551Z" fill="#97CFDB"/>
<path d="M327.235 180.821C326.98 182.19 326.609 184.278 326.145 187.131C325.681 189.985 325.356 191.748 325.193 192.421C324.845 194.3 323.755 195.391 321.876 195.739C319.997 196.087 315.612 196.342 308.721 196.504C307.028 196.597 306.007 195.576 305.659 193.442V188.082C305.659 187.479 305.659 186.876 305.729 186.227C305.798 185.577 305.729 185.09 305.659 184.765C305.566 184.417 305.543 184.115 305.543 183.814C305.543 183.512 305.427 183.28 305.218 183.118C305.009 182.955 304.824 182.793 304.708 182.677C304.592 182.538 304.29 182.422 303.826 182.282C303.362 182.143 302.968 182.074 302.666 182.027C302.365 181.981 301.831 181.888 301.065 181.702C299.627 181.447 293.386 181.146 282.366 180.821C271.346 180.473 264.688 180.311 262.391 180.311C260.953 180.311 259.793 179.406 258.934 177.642C257.31 173.977 257.194 169.569 258.54 164.372C258.702 163.444 259.862 162.748 261.997 162.331C262.252 162.168 264.804 162.098 269.653 162.145C274.501 162.191 277.053 162.215 277.309 162.215C280.023 162.122 287.911 161.936 300.903 161.635C313.918 161.333 321.528 161.147 323.755 161.055C326.4 160.892 333.522 160.753 345.122 160.66C356.722 160.567 363.218 160.544 364.587 160.544C366.466 160.451 367.951 161.704 369.041 164.233C370.828 167.968 371.222 171.727 370.201 175.462C369.853 176.738 368.833 177.666 367.139 178.269C365.26 179.035 358.625 179.591 347.233 179.916C335.842 180.264 329.88 180.427 329.369 180.427L327.189 180.821H327.235ZM294.314 105.282L334.636 103.101V87.7889C336.422 87.3713 338.325 87.0465 340.366 86.8377C342.408 86.6289 344.148 86.5361 345.586 86.5825C347.025 86.6289 348.95 86.6753 351.34 86.7217C353.729 86.7681 355.469 86.7913 356.56 86.7913C357.163 86.7913 357.789 87.1625 358.485 87.8817C359.158 88.6009 359.599 89.2737 359.761 89.8537C362.058 99.9689 363.381 106.999 363.729 110.919C363.891 112.288 363.891 113.657 363.729 115.072C363.566 116.464 363.288 118.251 362.893 120.362C362.499 122.496 362.267 123.842 362.197 124.445C362.035 125.211 361.084 130.57 359.39 140.523C353.428 141.033 350.296 141.288 349.948 141.288C325.541 142.216 311.065 142.68 306.564 142.68C299.836 142.68 290.138 141.961 277.471 140.499C273.991 140.082 271.184 138.69 269.119 136.347C267.031 134.003 265.987 131.173 265.987 127.855L265.848 113.703C265.755 111.662 265.523 108.692 265.152 104.771C264.757 100.851 264.525 97.9737 264.456 96.0945C264.456 95.4913 264.572 94.8417 264.85 94.1225C265.105 93.4033 265.453 92.9161 265.871 92.6609C271.137 90.1089 276.218 89.2273 281.067 89.9929C285.753 90.6657 288.259 91.0137 288.584 91.0137C290.718 91.0137 292.18 91.5241 292.992 92.5449C293.804 93.5657 294.245 95.0505 294.337 96.9993V105.305L294.314 105.282ZM295.961 116.371C295.869 116.789 295.753 117.485 295.567 118.413C295.405 119.341 295.265 120.199 295.173 120.965C295.08 121.731 295.08 122.496 295.173 123.262C295.265 127.09 295.776 129.456 296.704 130.338C297.632 131.243 299.975 131.683 303.733 131.683C313.686 131.521 321.969 131.289 328.604 131.057C332.177 130.964 334.589 130.477 335.819 129.595C337.049 128.691 338 126.811 338.696 123.911C339.369 120.942 338.858 118.436 337.165 116.441C335.471 114.446 332.965 113.518 329.625 113.703C327.583 113.796 316.354 114.678 295.938 116.371H295.961Z" fill="#418099"/>
<path d="M327.235 187.781C326.98 189.15 326.609 191.238 326.145 194.091C325.681 196.945 325.356 198.708 325.193 199.381C324.845 201.26 323.755 202.35 321.876 202.698C319.997 203.046 315.612 203.302 308.721 203.464C307.028 203.557 306.007 202.536 305.659 200.402V195.042C305.659 194.439 305.659 193.836 305.729 193.186C305.798 192.537 305.729 192.05 305.659 191.725C305.566 191.377 305.543 191.075 305.543 190.774C305.543 190.472 305.427 190.24 305.218 190.078C305.009 189.915 304.824 189.753 304.708 189.637C304.592 189.498 304.29 189.382 303.826 189.242C303.362 189.103 302.968 189.034 302.666 188.987C302.365 188.941 301.831 188.848 301.065 188.662C299.627 188.407 293.386 188.106 282.366 187.781C271.346 187.433 264.688 187.27 262.391 187.27C260.953 187.27 259.793 186.366 258.934 184.602C257.31 180.937 257.194 176.529 258.54 171.332C258.702 170.404 259.862 169.708 261.997 169.29C262.252 169.128 264.804 169.058 269.653 169.105C274.501 169.151 277.053 169.174 277.309 169.174C280.023 169.082 287.911 168.896 300.903 168.594C313.918 168.293 321.528 168.107 323.755 168.014C326.4 167.852 333.522 167.713 345.122 167.62C356.722 167.527 363.218 167.504 364.587 167.504C366.466 167.411 367.951 168.664 369.041 171.193C370.828 174.928 371.222 178.686 370.201 182.422C369.853 183.698 368.833 184.626 367.139 185.229C365.26 185.994 358.625 186.551 347.233 186.876C335.842 187.224 329.88 187.386 329.369 187.386L327.189 187.781H327.235ZM294.314 112.242L334.636 110.061V94.7489C336.422 94.3313 338.325 94.0065 340.366 93.7977C342.408 93.5889 344.148 93.4961 345.586 93.5425C347.025 93.5889 348.95 93.6353 351.34 93.6817C353.729 93.7281 355.469 93.7513 356.56 93.7513C357.163 93.7513 357.789 94.1225 358.485 94.8417C359.158 95.5609 359.599 96.2337 359.761 96.8137C362.058 106.929 363.381 113.958 363.729 117.879C363.891 119.248 363.891 120.617 363.729 122.032C363.566 123.424 363.288 125.21 362.893 127.322C362.499 129.456 362.267 130.802 362.197 131.405C362.035 132.17 361.084 137.53 359.39 147.482C353.428 147.993 350.296 148.248 349.948 148.248C325.541 149.176 311.065 149.64 306.564 149.64C299.836 149.64 290.138 148.921 277.471 147.459C273.991 147.042 271.184 145.65 269.119 143.306C267.031 140.963 265.987 138.133 265.987 134.815L265.848 120.663C265.755 118.622 265.523 115.652 265.152 111.731C264.757 107.81 264.525 104.934 264.456 103.054C264.456 102.451 264.572 101.802 264.85 101.082C265.105 100.363 265.453 99.8761 265.871 99.6209C271.137 97.0689 276.218 96.1873 281.067 96.9529C285.753 97.6257 288.259 97.9737 288.584 97.9737C290.718 97.9737 292.18 98.4841 292.992 99.5049C293.804 100.526 294.245 102.01 294.337 103.959V112.265L294.314 112.242ZM295.961 123.331C295.869 123.749 295.753 124.445 295.567 125.373C295.405 126.301 295.265 127.159 295.173 127.925C295.08 128.69 295.08 129.456 295.173 130.222C295.265 134.05 295.776 136.416 296.704 137.298C297.632 138.202 299.975 138.643 303.733 138.643C313.686 138.481 321.969 138.249 328.604 138.017C332.177 137.924 334.589 137.437 335.819 136.555C337.049 135.65 338 133.771 338.696 130.871C339.369 127.902 338.858 125.396 337.165 123.401C335.471 121.406 332.965 120.478 329.625 120.663C327.583 120.756 316.354 121.638 295.938 123.331H295.961Z" fill="white"/>
<path d="M458.661 101.917C458.661 101.917 434.301 111.963 432.074 146.554C429.847 181.145 433.187 215.899 439.15 230.515C445.112 245.131 457.014 254.805 481.188 254.805C505.363 254.805 520.257 253.506 543.318 254.805C557.145 255.594 574.568 257.404 583.871 235.828C593.174 214.252 587.955 144.698 579.974 120.13C574.707 103.959 562.829 91.1527 521.394 92.9623C483.067 94.6327 474.159 94.6327 458.707 101.894L458.661 101.917Z" fill="#C18E1B"/>
<path d="M458.661 90.3179C458.661 90.3179 434.301 100.363 432.074 134.955C429.847 169.546 433.187 204.299 439.15 218.915C445.112 233.531 457.014 243.206 481.188 243.206C505.363 243.206 520.257 241.907 543.318 243.206C557.145 243.995 574.568 245.804 583.871 224.228C593.174 202.652 587.955 133.099 579.974 108.53C574.707 92.3595 562.829 79.5531 521.394 81.3627C483.067 83.0331 474.159 83.0331 458.707 90.2947L458.661 90.3179Z" fill="#FED054"/>
<path d="M488.242 119.016C488.822 119.085 489.727 119.201 490.98 119.41C492.21 119.596 493.323 119.781 494.298 119.944C495.272 120.106 496.177 120.315 497.035 120.57C497.29 120.709 498.265 121.034 499.912 121.545C501.559 122.055 502.696 122.426 503.276 122.612C503.856 122.797 504.784 123.122 506.06 123.586C507.336 124.05 508.403 124.491 509.331 124.909C510.236 125.326 511.141 125.767 512.069 126.231C515.456 128.11 517.637 130.639 518.634 133.841C519.632 137.019 519.516 140.406 518.286 143.979C516.662 149.315 514.714 154.233 512.44 158.781C511.86 159.894 511.025 160.915 509.958 161.889C508.89 162.864 507.8 163.537 506.686 163.931C498.822 166.669 492.882 168.177 488.846 168.501C482.605 169.012 477.57 167.504 473.742 163.931C471.469 161.797 469.868 158.34 468.963 153.607C466.759 141.914 469.59 131.985 477.431 123.795C480.354 120.733 483.95 119.155 488.242 119.016ZM530.814 188.384C520.885 189.683 515.549 190.402 514.83 190.518C510.932 191.098 503.647 191.562 492.952 191.887C482.257 192.212 474.902 192.073 470.889 191.493C470.494 191.423 470.1 191.191 469.659 190.82C469.242 190.425 469.033 190.077 469.033 189.753C468.778 185.994 468.778 182.932 469.033 180.589C469.172 178.965 469.845 177.039 471.074 174.835C475.297 173.675 478.22 173.025 479.844 172.886C481.004 172.701 486.572 172.77 496.548 173.118C506.524 173.466 511.999 173.652 512.974 173.652C514.203 173.582 516.059 173.536 518.518 173.513C520.978 173.489 522.834 173.443 524.063 173.373L531.07 172.701C531.534 161.657 531.789 155.556 531.858 154.373L533.413 118.018C533.598 117.763 533.923 117.461 534.387 117.137C534.851 116.812 535.849 116.348 537.403 115.768C538.958 115.188 540.582 114.817 542.275 114.701C543.11 114.631 544.201 114.701 545.5 114.84C546.799 115.002 547.913 115.211 548.818 115.466L550.186 115.768C550.442 116.023 550.79 116.348 551.207 116.696C551.625 117.044 552.112 117.763 552.669 118.83C553.226 119.897 553.365 120.895 553.11 121.8C552.205 124.537 551.509 133.632 551.068 149.129C550.604 164.627 550.326 172.863 550.186 173.837C550.117 174.626 550.094 176.157 550.14 178.454C550.163 180.751 550.047 182.282 549.792 182.978C549.606 183.767 549.537 186.041 549.653 189.799C549.769 193.557 549.653 195.785 549.398 196.434C548.818 198.244 548.006 199.497 546.962 200.146C545.918 200.796 544.386 201.121 542.391 201.121C539.074 201.051 536.614 200.889 534.99 200.633C532.717 200.169 531.719 198.87 531.974 196.736C532.044 196.225 531.858 194.903 531.441 192.792C531.023 190.681 530.814 189.196 530.814 188.361V188.384ZM501.002 143.956C501.002 141.102 500.446 139.061 499.355 137.808C498.242 136.578 496.455 135.952 493.996 135.952C491.142 135.952 488.614 137.065 486.386 139.316C484.182 141.566 483.046 144.141 482.976 147.065C482.976 148.689 483.974 150.405 485.992 152.192C488.01 153.978 489.913 154.767 491.746 154.581C494.158 154.326 496.293 153.213 498.172 151.264C500.051 149.315 501.002 146.879 501.002 143.956Z" fill="#C18E1B"/>
<path d="M488.242 125.975C488.822 126.045 489.727 126.161 490.98 126.37C492.21 126.555 493.323 126.741 494.298 126.903C495.272 127.066 496.177 127.275 497.035 127.53C497.29 127.669 498.265 127.994 499.912 128.504C501.559 129.015 502.696 129.386 503.276 129.571C503.856 129.757 504.784 130.082 506.06 130.546C507.336 131.01 508.403 131.451 509.331 131.868C510.236 132.286 511.141 132.727 512.069 133.191C515.456 135.07 517.637 137.599 518.634 140.8C519.632 143.979 519.516 147.366 518.286 150.939C516.662 156.275 514.714 161.193 512.44 165.74C511.86 166.854 511.025 167.875 509.958 168.849C508.89 169.823 507.8 170.496 506.686 170.891C498.822 173.628 492.882 175.136 488.846 175.461C482.605 175.971 477.57 174.463 473.742 170.891C471.469 168.756 469.868 165.299 468.963 160.567C466.759 148.874 469.59 138.944 477.431 130.755C480.354 127.692 483.95 126.115 488.242 125.975ZM530.814 195.343C520.885 196.643 515.549 197.362 514.83 197.478C510.932 198.058 503.647 198.522 492.952 198.847C482.257 199.171 474.902 199.032 470.889 198.452C470.494 198.383 470.1 198.151 469.659 197.779C469.242 197.385 469.033 197.037 469.033 196.712C468.778 192.954 468.778 189.891 469.033 187.548C469.172 185.924 469.845 183.999 471.074 181.795C475.297 180.635 478.22 179.985 479.844 179.846C481.004 179.66 486.572 179.73 496.548 180.078C506.524 180.426 511.999 180.611 512.974 180.611C514.203 180.542 516.059 180.495 518.518 180.472C520.978 180.449 522.834 180.403 524.063 180.333L531.07 179.66C531.534 168.617 531.789 162.515 531.858 161.332L533.413 124.978C533.598 124.723 533.923 124.421 534.387 124.096C534.851 123.771 535.849 123.307 537.403 122.727C538.958 122.147 540.582 121.776 542.275 121.66C543.11 121.591 544.201 121.66 545.5 121.799C546.799 121.962 547.913 122.171 548.818 122.426L550.186 122.727C550.442 122.983 550.79 123.307 551.207 123.655C551.625 124.003 552.112 124.723 552.669 125.79C553.226 126.857 553.365 127.855 553.11 128.759C552.205 131.497 551.509 140.591 551.068 156.089C550.604 171.587 550.326 179.823 550.186 180.797C550.117 181.586 550.094 183.117 550.14 185.414C550.163 187.711 550.047 189.242 549.792 189.938C549.606 190.727 549.537 193 549.653 196.759C549.769 200.517 549.653 202.744 549.398 203.394C548.818 205.203 548.006 206.456 546.962 207.106C545.918 207.755 544.386 208.08 542.391 208.08C539.074 208.011 536.614 207.848 534.99 207.593C532.717 207.129 531.719 205.83 531.974 203.695C532.044 203.185 531.858 201.863 531.441 199.751C531.023 197.64 530.814 196.155 530.814 195.32V195.343ZM501.002 150.915C501.002 148.062 500.446 146.02 499.355 144.767C498.242 143.538 496.455 142.911 493.996 142.911C491.142 142.911 488.614 144.025 486.386 146.275C484.182 148.526 483.046 151.101 482.976 154.024C482.976 155.648 483.974 157.365 485.992 159.151C488.01 160.938 489.913 161.727 491.746 161.541C494.158 161.286 496.293 160.172 498.172 158.223C500.051 156.275 501.002 153.839 501.002 150.915Z" fill="white"/>
</svg>
